<?xml version="1.0" encoding="UTF-8" standalone="no"?>
<!-- Created with Inkscape (http://www.inkscape.org/) -->

<svg
   width="744.09448819"
   height="1052.3622047"
   id="svg2"
   version="1.1"
   inkscape:version="1.3 (0e150ed6c4, 2023-07-21)"
   sodipodi:docname="transfix.svg"
   xmlns:inkscape="http://www.inkscape.org/namespaces/inkscape"
   xmlns:sodipodi="http://sodipodi.sourceforge.net/DTD/sodipodi-0.dtd"
   xmlns="http://www.w3.org/2000/svg"
   xmlns:svg="http://www.w3.org/2000/svg"
   xmlns:rdf="http://www.w3.org/1999/02/22-rdf-syntax-ns#"
   xmlns:cc="http://creativecommons.org/ns#"
   xmlns:dc="http://purl.org/dc/elements/1.1/">
  <defs
     id="defs4">
    <filter
       inkscape:collect="always"
       style="color-interpolation-filters:sRGB"
       id="filter9"
       x="-0.0038561428"
       y="-0.021164374"
       width="1.0077123"
       height="1.0423287">
      <feGaussianBlur
         inkscape:collect="always"
         stdDeviation="0.50338543"
         id="feGaussianBlur9" />
    </filter>
  </defs>
  <sodipodi:namedview
     id="base"
     pagecolor="#ffffff"
     bordercolor="#666666"
     borderopacity="1.0"
     inkscape:pageopacity="0.0"
     inkscape:pageshadow="2"
     inkscape:zoom="0.7"
     inkscape:cx="-96.428571"
     inkscape:cy="570.71429"
     inkscape:document-units="px"
     inkscape:current-layer="layer1"
     showgrid="false"
     inkscape:window-width="1920"
     inkscape:window-height="1060"
     inkscape:window-x="0"
     inkscape:window-y="20"
     inkscape:window-maximized="1"
     inkscape:showpageshadow="0"
     inkscape:pagecheckerboard="0"
     inkscape:deskcolor="#d1d1d1" />
  <metadata
     id="metadata7">
    <rdf:RDF>
      <cc:Work
         rdf:about="">
        <dc:format>image/svg+xml</dc:format>
        <dc:type
           rdf:resource="http://purl.org/dc/dcmitype/StillImage" />
        <dc:title />
      </cc:Work>
    </rdf:RDF>
  </metadata>
  <g
     inkscape:label="Layer 1"
     inkscape:groupmode="layer"
     id="layer1">
    <g
       style="font-style:normal;font-weight:normal;font-size:12px;line-height:125%;font-family:Sans;letter-spacing:0px;word-spacing:0px;fill:#f2f2f2;fill-opacity:1;stroke:none;opacity:0.13622325;filter:url(#filter9)"
       id="g8"
       transform="translate(-0.09525812,-0.201178)">
      <path
         id="path1"
         style="font-variant:normal;font-stretch:normal;font-size:56px;line-height:125%;font-family:'Transport Heavy';-inkscape-font-specification:'Transport Heavy,';text-align:start;writing-mode:lr-tb;text-anchor:start;fill:#f2f2f2"
         d="m 102.16992,290.22461 c 0,3.4375 0,6.875 0,10.3125 3.9375,0 7.875,0 11.8125,0 0,11.19271 0,22.38542 0,33.57812 4.21354,0 8.42709,0 12.64063,0 0,-11.1927 0,-22.38541 0,-33.57812 3.9375,0 7.875,0 11.8125,0 0,-4.10417 0,-8.20833 0,-12.3125 -12.08854,0 -24.17709,0 -36.26563,0 0,0.66667 0,1.33333 0,2 z" />
      <path
         id="path2"
         style="font-variant:normal;font-stretch:normal;font-size:56px;line-height:125%;font-family:'Transport Heavy';-inkscape-font-specification:'Transport Heavy,';text-align:start;writing-mode:lr-tb;text-anchor:start;fill:#f2f2f2"
         d="m 142.31055,290.22461 c 0,14.63021 0,29.26042 0,43.89062 4.21354,0 8.42708,0 12.64062,0 0,-5.43229 0,-10.86458 0,-16.29687 0.75557,0.0253 1.56419,-0.0501 2.28711,0.0371 0.53196,0.73616 0.95174,1.52495 1.27344,2.37695 0.52073,0.26795 0.5462,1.0007 0.96121,1.41112 0.79445,1.17504 1.28671,2.56208 2.21828,3.65879 0.51882,1.00899 1.05857,2.00048 1.66426,2.95744 0.3226,0.77734 0.9086,1.39357 1.24544,2.16251 0.50795,0.84603 0.94319,1.77169 1.50403,2.58179 0.38853,0.38487 0.35278,1.34059 1.09428,1.11116 4.5612,0 9.12239,0 13.68359,0 -0.80417,-1.89472 -1.48065,-3.86577 -2.6289,-5.58593 -0.17256,-0.6441 -0.78507,-1.03917 -1.0041,-1.68565 -0.52525,-0.87755 -0.93781,-1.83134 -1.56622,-2.6249 -0.55711,-1.01446 -1.0673,-2.07535 -1.74804,-3.01563 -0.45558,-0.96999 -1.10079,-1.82717 -1.58399,-2.78515 -0.5511,-0.78544 -1.02092,-1.66645 -1.42187,-2.50781 3.43483,-1.95491 6.26979,-5.2052 7.07617,-9.14454 0.65396,-3.13556 0.28749,-6.44885 -0.7793,-9.44921 -1.4198,-3.52792 -4.34682,-6.34745 -7.76869,-7.92616 -0.72547,-0.19033 -1.42183,-0.54605 -2.12467,-0.72814 -1.65405,-0.3157 -3.34512,-0.4873 -5.03828,-0.4375 -6.66146,0 -13.32291,0 -19.98437,0 0,0.66667 0,1.33333 0,2 z m 14.14062,9.875 c 2.10163,0.0302 4.21707,-0.0605 6.31007,0.0452 0.57882,0.12964 1.17143,0.27481 1.65478,0.57592 0.91998,0.79237 1.58479,2.09141 1.04443,3.2868 -0.45719,1.129 -1.56492,2.11806 -2.85147,1.93586 -2.5526,0 -5.1052,0 -7.65781,0 0,-1.94792 0,-3.89583 0,-5.84375 0.5,0 1,0 1.5,0 z" />
      <path
         id="path3"
         style="font-variant:normal;font-stretch:normal;font-size:56px;line-height:125%;font-family:'Transport Heavy';-inkscape-font-specification:'Transport Heavy,';text-align:start;writing-mode:lr-tb;text-anchor:start;fill:#f2f2f2"
         d="m 195.23828,289.70898 c -4.88143,14.83857 -9.76354,29.67692 -14.64453,44.51563 4.58333,0 9.16667,0 13.75,0 0.48715,-2.34367 1.30532,-4.59624 1.98948,-6.88525 0.002,-0.7593 0.72444,-0.53164 1.27068,-0.55225 3.84427,0 7.68854,0 11.53281,0 1.88978,5.84251 3.78126,11.68447 5.66992,17.52734 4.46224,0 8.92448,0 13.38672,0 -6.11337,-18.66012 -12.22643,-37.32035 -18.33984,-55.98047 -4.72071,0 -9.44141,0 -14.16211,0 -0.15105,0.45834 -0.30209,0.91667 -0.45313,1.375 z m 7.56641,16.4668 c 0.64009,2.12525 1.25064,4.26504 1.95257,6.37774 0.29842,0.93036 0.58596,1.86417 0.87946,2.79609 -1.90495,0 -3.8099,0 -5.71484,0 0.52643,-1.45847 0.91728,-2.96364 1.35782,-4.44354 0.62502,-1.56705 1.00348,-3.21591 1.5035,-4.82209 z" />
      <path
         id="path4"
         style="font-variant:normal;font-stretch:normal;font-size:56px;line-height:125%;font-family:'Transport Heavy';-inkscape-font-specification:'Transport Heavy,';text-align:start;writing-mode:lr-tb;text-anchor:start;fill:#f2f2f2"
         d="m 228.2793,290.22461 c 0,14.59375 0,29.1875 0,43.78125 4.21354,0 8.42708,0 12.64062,0 0,-7.78776 0,-15.57552 0,-23.36328 0.40128,0.65001 0.89314,1.21825 1.22485,1.91232 0.97291,1.27114 1.60603,2.74551 2.6775,3.92557 0.56558,0.89129 1.12418,1.7858 1.63085,2.71484 0.72424,0.70426 1.1736,1.71571 1.7793,2.54883 0.37097,0.6545 0.92433,1.20052 1.1836,1.92969 0.51774,0.5889 0.91408,1.29285 1.41569,1.90017 0.49665,1.02557 1.23628,1.87693 1.82619,2.84024 0.82494,1.02179 1.29194,2.28775 2.17804,3.27326 0.49694,0.74275 0.96483,1.5005 1.33203,2.31836 4.36002,0 8.72005,0 13.08008,0 0,-15.26042 0,-30.52083 0,-45.78125 -4.21354,0 -8.42709,0 -12.64063,0 -0.0105,7.74635 0.0209,15.64057 -0.0156,23.29492 -0.57245,-0.91486 -1.24393,-1.73163 -1.75,-2.68945 -0.69368,-0.74445 -0.94074,-1.79434 -1.73516,-2.46211 -0.75937,-1.4498 -1.74647,-2.76407 -2.69062,-4.09063 -0.54524,-1.3165 -1.65805,-2.29578 -2.22431,-3.58221 -0.84318,-1.05397 -1.49987,-2.22496 -2.26398,-3.3299 -0.49272,-0.6579 -0.86554,-1.41387 -1.39257,-2.05468 -0.16191,-0.69826 -0.88537,-1.05152 -1.16446,-1.71056 -0.75654,-1.08764 -1.45304,-2.21227 -2.0875,-3.37538 -4.33463,0 -8.66927,0 -13.0039,0 0,0.66667 0,1.33333 0,2 z" />
      <path
         id="path5"
         style="font-variant:normal;font-stretch:normal;font-size:56px;line-height:125%;font-family:'Transport Heavy';-inkscape-font-specification:'Transport Heavy,';text-align:start;writing-mode:lr-tb;text-anchor:start;fill:#f2f2f2"
         d="m 294.83203,287.24023 c -4.65329,0.45009 -9.52969,1.89994 -12.78331,5.44186 -2.67665,2.88826 -3.82617,6.93693 -3.72693,10.81157 0.40258,3.84712 2.24173,7.65547 5.4829,9.88525 2.31499,1.66054 5.11682,2.46996 7.90076,2.8912 1.18776,0.44158 2.48265,0.48623 3.67385,0.892 1.12617,0.14915 2.20154,0.62421 3.33557,0.72901 0.47616,0.13294 0.98449,0.30017 1.31557,0.66649 0.5729,0.71971 0.88083,1.83445 0.29572,2.62884 -0.39523,0.57693 -1.19466,0.80321 -1.69921,1.28621 -3.79021,0.82695 -7.86412,-0.0354 -11.0332,-2.25977 -1.58318,-1.04025 -2.91288,-2.39883 -4.27539,-3.70117 -1.02471,0.80421 -1.92327,1.79872 -3.02706,2.48393 -0.46739,0.28045 -0.86075,0.61522 -1.27607,0.95709 -0.5301,0.37197 -1.01768,0.77233 -1.45859,1.23476 -0.72508,0.41078 -1.31091,1.01399 -1.98828,1.48242 -0.81993,0.38014 -1.15081,1.34627 -1.75298,1.98751 -0.65027,0.51552 0.41095,0.93824 0.66986,1.40446 3.75728,4.24348 8.76765,7.49885 14.37839,8.58722 5.43733,1.09939 11.12456,0.37559 16.34013,-1.3891 3.90466,-1.43711 6.86708,-4.81319 8.24207,-8.68809 1.4752,-3.77579 1.12521,-8.16649 -0.88089,-11.68318 -0.67978,-1.27641 -1.50571,-2.50141 -2.69975,-3.35039 -0.94492,-0.84754 -1.98535,-1.60527 -3.0902,-2.22039 -0.6086,-0.52173 -1.48502,-0.6406 -2.21166,-0.97458 -1.09143,-0.45956 -2.26361,-0.64334 -3.37192,-1.05627 -0.73431,0.0319 -1.38982,-0.45252 -2.12404,-0.4748 -1.41881,-0.43943 -2.88346,-0.71232 -4.32954,-1.04123 -0.75994,-0.14045 -1.60624,-0.29473 -2.23392,-0.72616 -0.4574,-0.64877 -0.67279,-1.68201 0.0937,-2.1875 0.96313,-1.04224 2.50685,-0.98554 3.82068,-1.06856 3.67939,-0.0631 7.03725,1.83732 9.77213,4.14576 0.49575,0.6581 0.9867,0.47559 1.47553,-0.0823 0.68607,-0.42639 1.15804,-1.1337 1.82889,-1.54898 0.33931,-0.39877 0.7945,-0.72572 1.17418,-1.14122 0.30673,-0.43437 0.91533,-0.48776 1.09148,-1.05197 0.39024,-0.4976 1.03826,-0.67135 1.40586,-1.21406 0.65004,-0.74501 1.52351,-1.28706 2.16813,-2.05779 0.55957,-0.42869 0.94135,-0.85665 0.14945,-1.27979 -2.67986,-2.83012 -5.90226,-5.19301 -9.57475,-6.5548 -3.52208,-1.35062 -7.31969,-1.84598 -11.07721,-1.76348 z" />
      <path
         id="path6"
         style="fill:#f2f2f2"
         d="m 321.4668,290.33398 c 0,14.63021 0,29.26042 0,43.89063 4.21354,0 8.42708,0 12.64062,0 0,-5.76042 0,-11.52083 0,-17.28125 5.6875,0 11.375,0 17.0625,0 0,-3.95833 0,-7.91667 0,-11.875 -5.6875,0 -11.375,0 -17.0625,0 0,-1.47396 0,-2.94792 0,-4.42188 6.30729,0 12.61459,0 18.92188,0 0,-4.10416 0,-8.20833 0,-12.3125 -10.52084,0 -21.04167,0 -31.5625,0 0,0.66667 0,1.33334 0,2 z" />
      <path
         id="path7"
         style="fill:#f2f2f2"
         d="m 357.45117,290.44336 c 0,14.59375 0,29.1875 0,43.78125 4.21354,0 8.42709,0 12.64063,0 0,-15.26042 0,-30.52083 0,-45.78125 -4.21354,0 -8.42709,0 -12.64063,0 0,0.66667 0,1.33333 0,2 z" />
      <path
         id="path8"
         style="fill:#f2f2f2"
         d="m 374.91016,291.26562 c 0.36895,0.91809 1.04736,1.65445 1.47226,2.53165 0.34781,0.47388 0.65362,0.98114 0.86017,1.51563 0.2896,0.44974 0.7041,0.82199 0.90604,1.32695 0.22277,0.49066 0.59786,0.9184 0.8384,1.40322 0.45351,0.4343 0.62482,1.07943 1.00906,1.57021 0.44938,0.88893 1.15812,1.61911 1.52539,2.54883 0.54308,0.86199 1.08354,1.73858 1.65846,2.57147 0.16653,0.50377 0.59256,0.86189 0.81029,1.36017 0.48048,0.86161 1.10273,1.66536 1.38868,2.61133 0.61028,0.25196 0.76859,1.01808 1.08984,1.52148 -0.42149,0.75878 -0.93429,1.46385 -1.33789,2.24024 -0.55862,0.43771 -0.65138,1.22858 -1.15576,1.70505 -0.59909,0.18272 -0.32438,1.01496 -0.83995,1.34326 -0.44877,0.73092 -0.76347,1.52056 -1.3539,2.16067 -0.20524,0.55227 -0.66125,1.01097 -0.8919,1.58503 -0.58503,1.05957 -1.24881,2.08813 -1.92295,3.0892 -0.43684,0.384 -0.41863,1.03407 -0.89101,1.41093 -0.39563,0.48551 -0.46255,1.11397 -0.92891,1.55742 -0.61638,0.7982 -0.88346,1.78681 -1.54216,2.55927 -0.4818,0.74933 -0.91193,1.53886 -1.42659,2.24932 -0.64989,1.34138 -1.18696,2.73504 -1.79101,4.09766 4.84896,0 9.69792,0 14.54687,0 0.33871,-0.85617 0.65071,-1.73514 1.27324,-2.42929 0.1867,-0.4452 0.53018,-0.76095 0.66172,-1.22691 0.69688,-0.81288 1.00801,-1.86059 1.67833,-2.69341 0.28392,-0.52011 0.70269,-0.92746 0.93711,-1.48477 0.48548,-0.73999 0.87931,-1.54923 1.41942,-2.23732 0.33598,-0.64195 0.78874,-1.21622 1.11026,-1.87166 0.32491,0.41897 0.42575,0.93944 0.83698,1.28895 0.68007,1.47678 1.80591,2.66763 2.48759,4.14122 0.52411,0.75249 1.04651,1.51439 1.4977,2.32764 0.41401,0.92762 1.1461,1.66653 1.45139,2.64906 0.39297,0.44755 0.72283,1.02436 1.0779,1.53649 4.70118,0 9.40235,0 14.10352,0 -0.59115,-1.42028 -0.8932,-2.99876 -1.82422,-4.24609 -0.45747,-0.94501 -1.10486,-1.7694 -1.62305,-2.67969 -0.61556,-0.9894 -1.21549,-2.00048 -1.86147,-2.96976 -0.29013,-0.74647 -0.90368,-1.31235 -1.26287,-2.02439 -0.33361,-0.65878 -0.79286,-1.27454 -1.06551,-1.94961 -0.573,-0.37835 -0.56636,-1.12135 -1.0619,-1.54412 -0.45274,-0.8416 -1.06323,-1.57025 -1.44085,-2.38075 -0.41073,-0.65131 -0.89411,-1.25149 -1.03982,-2.02981 -0.50578,-0.19448 -0.6273,-0.82289 -0.99804,-1.1875 -0.24397,-0.79222 -1.04344,-1.29137 -1.12696,-2.13672 -0.34303,-0.36052 -1.07278,-0.84033 -0.48405,-1.32269 0.47502,-0.66973 0.87974,-1.40917 1.32665,-2.06873 0.66824,-1.05353 1.33798,-2.18275 2.01873,-3.26287 0.56906,-1.15371 1.32121,-2.21624 1.98047,-3.32422 0.37942,-0.48871 0.65684,-1.03128 0.97221,-1.55486 0.36718,-0.53382 0.65656,-1.11669 1.05351,-1.63147 0.75085,-1.56339 1.91732,-2.89643 2.68829,-4.44093 0.71684,-1.06812 1.33365,-2.21465 1.88042,-3.38784 0.27191,-0.5464 0.54382,-1.0928 0.81573,-1.6392 -4.81511,0 -9.63021,0 -14.44532,0 -0.74302,1.05778 -1.43902,2.12135 -2.08338,3.23317 -0.19578,0.63109 -0.89678,0.96808 -0.92052,1.66917 -1.1839,1.42336 -1.83643,3.18452 -2.9375,4.66797 -0.27749,-0.50531 -0.70265,-0.90565 -0.87014,-1.47339 -0.49193,-0.57113 -0.87791,-1.26083 -1.2496,-1.91874 -0.81837,-1.08332 -1.32179,-2.35913 -2.17323,-3.41646 -0.54336,-0.92144 -0.97839,-1.92319 -1.84223,-2.60005 -0.43558,-0.36216 -1.14468,-0.064 -1.6898,-0.16167 -4.18985,0 -8.37969,0 -12.56953,0 0.42513,0.94075 0.85026,1.88151 1.27539,2.82226 z" />
    </g>
    <g
       style="font-size:12px;font-style:normal;font-weight:normal;line-height:125%;letter-spacing:0px;word-spacing:0px;fill:#000000;fill-opacity:1;stroke:none;font-family:Sans"
       id="text2985"
       inkscape:export-filename="text2985.png"
       inkscape:export-xdpi="124.49848"
       inkscape:export-ydpi="124.49848">
      <path
         d="m 104.60714,290.22491 0.4375,0 0.32812,0 0.4375,0 1.96875,0 0.4375,0 1.96875,0 0.65625,0 0.76563,0 2.1875,0 0.875,0 0.875,0 0.875,0 0.875,0 2.1875,0 0.32812,0 0.32813,0 3.39062,0 0.76563,0 0.65625,0 0.76562,0 0.65625,0 0.54688,0 0.65625,0 0.4375,0 1.96875,0 1.20312,0 0.4375,0 0.4375,0 0.4375,0 0.4375,0 1.85938,0 0.32812,0 1.3125,0 0,8.3125 -0.65625,0 -0.32812,0 -2.1875,0 -1.42188,0 -0.4375,0 -1.96875,0 -0.4375,0 -0.4375,0 -0.4375,0 -1.85937,0 -0.32813,0 -1.3125,0 0,33.57813 -1.42187,0 -0.4375,0 -1.96875,0 -0.4375,0 -0.4375,0 -0.4375,0 -1.85938,0 -0.32812,0 -1.3125,0 0,-0.76563 0,-0.32812 0,-0.54688 0,-0.32812 0,-0.4375 0,-0.32813 0,-2.1875 0,-0.4375 0,-1.96875 0,-0.65625 0,-0.76562 0,-2.1875 0,-0.875 0,-0.875 0,-0.875 0,-0.875 0,-2.1875 0,-0.32813 0,-0.32812 0,-3.39063 0,-0.76562 0,-0.65625 0,-0.76563 0,-0.65625 0,-0.54687 0,-0.65625 0,-0.4375 0,-1.96875 0,-1.20313 0,-0.4375 0,-0.4375 0,-0.4375 0,-0.4375 0,-1.85937 0,-0.32813 0,-1.3125 -0.65625,0 -0.32813,0 -2.1875,0 -1.42187,0 -0.4375,0 -1.96875,0 -0.4375,0 -0.4375,0 -0.4375,0 -1.85938,0 -0.32812,0 -1.3125,0 0,-2.1875 0,-0.54687 0,-0.32813 0,-0.4375 0,-0.4375 0,-0.4375 0,-0.4375 0,-1.85937 0,-0.32813 0,-1.3125 z"
         style="font-size:56px;font-variant:normal;font-stretch:normal;text-align:start;line-height:125%;writing-mode:lr-tb;text-anchor:start;font-family:Transport Heavy;-inkscape-font-specification:'Transport Heavy,'"
         id="path2992" />
      <path
         d="m 145.18526,290.22491 0.875,0 2.1875,0 0.32813,0 0.32812,0 3.39063,0 0.76562,0 0.32813,0 1.42187,0 1.85938,0 0.4375,0 0.4375,0 1.96875,0 1.53125,0 0.32812,0 0.32813,0 0.32812,0 0.76563,0 0.4375,0 0.32812,0 0.32813,0 c 0.52862,0.0912 0.96612,0.12766 1.3125,0.10938 l 1.3125,0.21875 0.21875,0.10937 0.32812,0 0.21875,0.10938 1.64063,0.54687 c 3.35413,1.76828 5.57809,4.21098 6.67187,7.32813 2.15101,7.69274 -0.36462,13.19794 -7.54687,16.51562 l 0.21875,0.10938 c 0.34632,0.71096 0.67445,1.29429 0.98437,1.75 l 0.32813,0.65625 c 0.1458,0.237 0.25518,0.45575 0.32812,0.65625 l 0.4375,0.65625 c 0.43747,0.65627 0.7656,1.2396 0.98438,1.75 0.43747,0.54689 0.72913,1.05731 0.875,1.53125 0.45569,0.58335 0.78382,1.09376 0.98437,1.53125 0.25518,0.41928 0.43747,0.78387 0.54688,1.09375 l 0.21875,0.32812 0.21875,0.4375 0.32812,0.32813 0.76563,1.42187 c 0.23694,0.38283 0.41923,0.71095 0.54687,0.98438 l 0.21875,0.32812 0.10938,0.21875 0.21875,0.21875 0.10937,0.32813 c 0.67444,1.00261 1.1484,1.87761 1.42188,2.625 l -0.76563,0 -1.53125,0 -0.32812,0 -1.96875,0 -1.42188,0 -0.4375,0 -1.85937,0 -0.32813,0 -1.3125,0 -0.10937,-0.21875 -0.21875,-0.21875 -0.10938,-0.21875 -0.76562,-1.3125 -0.10938,-0.32813 c -0.34638,-0.41926 -0.56513,-0.8203 -0.65625,-1.20312 -0.43752,-0.45572 -0.72919,-0.92968 -0.875,-1.42188 -0.43752,-0.54686 -0.72919,-1.05728 -0.875,-1.53125 l -0.32812,-0.4375 -0.32813,-0.65625 -0.21875,-0.4375 c -0.45575,-0.54686 -0.78387,-1.02081 -0.98437,-1.42187 -0.25523,-0.56509 -0.51044,-1.03905 -0.76563,-1.42188 l -0.10937,-0.32812 c -0.41929,-0.45571 -0.71096,-0.92967 -0.875,-1.42188 l -0.21875,-0.32812 -0.10938,-0.32813 -0.21875,-0.10937 -0.32812,-0.76563 c -0.0912,-0.0729 -0.12763,-0.14581 -0.10938,-0.21875 -0.54689,-0.71091 -0.94793,-1.36716 -1.20312,-1.96875 l -0.4375,0 -1.20313,0 -0.54687,0 -0.32813,0 -0.4375,0 -0.32812,0 -2.1875,0 0,16.29688 -1.42188,0 -0.4375,0 -1.96875,0 -0.4375,0 -0.4375,0 -0.4375,0 -1.85937,0 -0.32813,0 -1.3125,0 0,-0.4375 0,-1.96875 0,-0.875 0,-0.875 0,-0.32813 0,-0.4375 0,-1.96875 0,-0.32812 0,-2.1875 0,-0.875 0,-0.4375 0,-1.96875 0,-0.32813 0,-0.32812 0,-3.39063 0,-0.76562 0,-0.32813 0,-0.4375 0,-1.96875 0,-1.53125 0,-0.32812 0,-0.54688 0,-0.32812 0,-0.4375 0,-0.32813 0,-2.1875 0,-1.85937 0,-0.32813 0,-1.3125 0,-1.42187 0,-0.4375 0,-1.85938 0,-0.32812 0,-1.3125 0,-1.20313 0,-0.54687 0,-1.42188 0,-0.4375 0,-1.85937 0,-0.32813 0,-1.3125 z m 7.76563,17.71875 0.54687,0 0.76563,0 1.53125,0 0.32812,0 1.96875,0 1.42188,0 0.4375,0 1.85937,0 0.32813,0 1.3125,0 1.3125,-0.32812 c 2.16924,-1.34893 3.11716,-3.17184 2.84375,-5.46875 -0.52868,-1.64059 -1.47659,-2.84371 -2.84375,-3.60938 l -0.32813,0 -0.21875,-0.10937 -1.42187,-0.32813 -0.54688,0 -1.53125,0 -0.54687,0 -0.4375,0 -1.96875,0 -0.4375,0 -0.4375,0 -0.4375,0 -1.85938,0 -0.32812,0 -1.3125,0 z"
         style="font-size:56px;font-variant:normal;font-stretch:normal;text-align:start;line-height:125%;writing-mode:lr-tb;text-anchor:start;font-family:Transport Heavy;-inkscape-font-specification:'Transport Heavy,'"
         id="path2994" />
      <path
         style="font-size:56px;font-variant:normal;font-stretch:normal;text-align:start;line-height:125%;writing-mode:lr-tb;text-anchor:start;font-family:Transport Heavy;-inkscape-font-specification:'Transport Heavy,'"
         d="m 197.90401,290.33429 c 3.5,0 7,0 10.5,0 l 17.02962,51.97991 c -3.0575,0 -6.11499,0 -9.17248,0 l -5.66964,-17.52679 c -5.21354,0 -10.42708,0 -15.64062,0 -0.20856,1.20374 -0.69116,2.3307 -1.01725,3.50019 -0.33631,1.33161 -0.87882,2.59478 -1.17025,3.93731 -3.13542,0 -6.27083,0 -9.40625,0 l 13.78125,-41.89062 c 0.25521,0 0.51041,0 0.76562,0 z m 4.70313,9.625 c -0.56722,1.98457 -1.15368,3.97347 -1.87039,5.91017 -0.4252,1.62835 -0.87232,3.25205 -1.52024,4.80858 -0.45843,2.27849 -1.44911,4.39938 -1.96875,6.67187 3.68229,0 7.36459,0 11.04688,0 -0.88672,-3.28301 -2.02628,-6.49462 -2.99074,-9.74128 -0.0712,-0.78055 -0.53794,-1.39672 -0.59249,-2.18538 -0.48915,-1.56951 -1.09286,-3.09732 -1.48908,-4.69572 -0.23518,-0.27375 -0.51371,-2.14111 -0.61519,-0.76824 z"
         id="path2996"
         inkscape:connector-curvature="0"
         sodipodi:nodetypes="scccccccccsccccccccc" />
      <path
         d="m 230.82589,290.22491 1.53125,0 0.54687,0 0.4375,0 1.96875,0 0.4375,0 0.4375,0 0.4375,0 1.85938,0 0.32812,0 1.3125,0 0.4375,0.76563 0.4375,0.65625 0.4375,0.65625 0.4375,0.65625 0.4375,0.65625 0.32813,0.32812 0.10937,0.32813 c 0.0911,0.073 0.12759,0.14588 0.10938,0.21875 0.52863,0.56515 0.89321,1.11202 1.09375,1.64062 0.52862,0.56515 0.89321,1.11202 1.09375,1.64063 l 0.4375,0.54687 0.4375,0.65625 c 0.2005,0.32817 0.38279,0.58338 0.54687,0.76563 l 0.10938,0.32812 c 0.27341,0.29171 0.45571,0.58338 0.54687,0.875 0.72915,0.82035 1.23956,1.58598 1.53125,2.29688 l 0.4375,0.65625 c 0.0911,0.0729 0.12758,0.14587 0.10938,0.21875 0.54685,0.61982 0.94789,1.1667 1.20312,1.64062 l 0.4375,0.65625 0.32813,0.65625 0.4375,0.65625 0.4375,0.4375 0.32812,0.54688 0.21875,0.54687 c 0.47393,0.47399 0.80206,0.94795 0.98438,1.42188 l 0.32812,0.4375 0.21875,0.4375 0.32813,0.32812 c 0.34632,0.51045 0.60153,0.94795 0.76562,1.3125 l 0.32813,0.32813 0.21875,0.32812 0.10937,0.32813 0.21875,0.10937 c 0.23695,0.52867 0.49216,0.92971 0.76563,1.20313 l 0.10937,0.32812 c 0.0911,0.0729 0.12758,0.14586 0.10938,0.21875 0.67444,0.74742 1.1484,1.44013 1.42187,2.07813 l 0.10938,-0.76563 0,-0.76562 0,-0.875 0,-0.4375 0,-1.96875 0,-1.20313 0,-0.4375 0,-0.4375 0,-0.4375 0,-0.4375 0,-1.85937 0,-0.32813 0,-1.3125 0,-0.65625 0,-1.85937 0,-0.32813 0,-1.3125 0,-1.42187 0,-0.4375 0,-1.85938 0,-0.32812 0,-1.3125 0,-1.20313 0,-0.54687 0,-1.42188 0,-0.4375 0,-1.85937 0,-0.32813 0,-1.3125 1.42187,0 0.4375,0 1.96875,0 0.4375,0 0.4375,0 0.4375,0 1.85938,0 0.32812,0 1.3125,0 0,41.78125 -0.32812,0 -1.3125,0 -1.09375,0 -0.76563,0 -0.65625,0 -0.54687,0 -0.4375,0 -0.4375,0 -0.4375,0 -0.32813,0 -0.32812,0 -0.32813,0 -0.21875,0 0.21875,0 -0.21875,0 -0.875,0 -0.32812,0 -1.42188,0 -0.10937,-0.21875 c -0.25524,-0.32811 -0.43753,-0.61978 -0.54688,-0.875 -0.0912,-0.0729 -0.12763,-0.14582 -0.10937,-0.21875 -0.67451,-0.74738 -1.14847,-1.44009 -1.42188,-2.07812 -0.0912,-0.0729 -0.12763,-0.14582 -0.10937,-0.21875 l -0.4375,-0.65625 c -0.38284,-0.43749 -0.67451,-0.87499 -0.875,-1.3125 l -0.54688,-0.65625 -0.4375,-0.76563 -0.4375,-0.76562 c -0.49221,-0.54686 -0.85679,-1.05728 -1.09375,-1.53125 l -0.21875,-0.21875 c -0.29169,-0.63801 -0.61981,-1.14842 -0.98437,-1.53125 l -0.10938,-0.21875 -0.21875,-0.32813 -0.98437,-1.53125 c -0.25523,-0.3281 -0.43753,-0.61977 -0.54688,-0.875 -0.0912,-0.0729 -0.12762,-0.14581 -0.10937,-0.21875 l -0.21875,-0.10937 -0.4375,-0.76563 -0.10938,-0.21875 c -0.25523,-0.3281 -0.43752,-0.61977 -0.54687,-0.875 -0.16409,-0.18226 -0.27346,-0.36456 -0.32813,-0.54687 l -0.4375,-0.4375 -0.4375,-0.65625 -0.21875,-0.54688 -0.21875,-0.10937 -0.4375,-0.76563 -0.98437,-1.42187 -0.21875,-0.4375 -0.21875,-0.4375 -0.32813,-0.32813 -0.21875,-0.32812 -0.10937,-0.32813 c -0.3646,-0.40101 -0.65627,-0.76559 -0.875,-1.09375 l -0.21875,-0.4375 c -0.30991,-0.41924 -0.52866,-0.78382 -0.65625,-1.09375 -0.12762,-0.0729 -0.20054,-0.1458 -0.21875,-0.21875 l -0.21875,-0.21875 -0.10938,-0.21875 -0.4375,-0.76562 -0.98437,-1.42188 0,28 -1.42188,0 -0.4375,0 -1.96875,0 -0.4375,0 -0.4375,0 -0.4375,0 -1.85937,0 -0.32813,0 -1.3125,0 0,-0.32812 0,-0.4375 0,-0.32813 0,-0.4375 0,-1.96875 0,-0.875 0,-0.875 0,-0.32812 0,-2.1875 0,-0.4375 0,-0.54688 0,-0.4375 0,-0.54687 0,-1.42188 0,-0.4375 0,-1.85937 0,-0.32813 0,-1.3125 0,-0.4375 0,-0.54687 0,-1.42188 0,-0.4375 0,-1.85937 0,-0.32813 0,-1.3125 0,-0.76562 0,-0.875 0,-0.875 0,-0.875 0,-0.32813 0,-0.32812 0,-3.39063 0,-0.76562 0,-0.65625 0,-0.76563 0,-0.65625 0,-0.54687 0,-0.65625 0,-0.4375 0,-1.96875 0,-1.20313 0,-0.4375 0,-0.4375 0,-0.4375 0,-0.4375 0,-1.85937 0,-0.32813 0,-1.3125 z"
         style="font-size:56px;font-variant:normal;font-stretch:normal;text-align:start;line-height:125%;writing-mode:lr-tb;text-anchor:start;font-family:Transport Heavy;-inkscape-font-specification:'Transport Heavy,'"
         id="path2998" />
      <path
         d="m 294.83761,289.24054 c 7.52862,-0.18224 13.65361,2.11463 18.375,6.89062 l -0.21875,0.21875 -1.09375,0.875 -0.21875,0.32813 -0.32813,0.32812 -0.4375,0.21875 -0.32812,0.32813 -0.32813,0.32812 -0.21875,0.32813 -0.4375,0.21875 c -0.25524,0.34639 -0.47399,0.6016 -0.65625,0.76562 l -0.65625,0.4375 -0.10937,0.21875 -0.21875,0.10938 c -0.38285,0.47399 -0.74743,0.83858 -1.09375,1.09375 -4.59378,-3.75517 -9.33336,-4.95829 -14.21875,-3.60938 -0.27346,0.25525 -0.56512,0.43754 -0.875,0.54688 -0.40106,0.41931 -0.76564,0.74743 -1.09375,0.98437 l -0.10938,0.21875 -0.54687,1.3125 c 0.0364,1.45837 0.5104,2.62504 1.42187,3.5 l 1.85938,0.65625 1.75,0.32813 c 0.54685,0.18232 1.02081,0.2917 1.42187,0.32812 l 0.4375,0.10938 0.4375,0.10937 0.4375,0.10938 0.4375,0.10937 0.54688,0.21875 0.32812,0 0.4375,0.10938 0.54688,0.21875 0.4375,0.10937 0.32812,0 c 0.41925,0.1641 0.78383,0.27347 1.09375,0.32813 l 0.875,0.21875 c 0.34633,0.16409 0.63799,0.27347 0.875,0.32812 l 0.32813,0.10938 1.42187,0.54687 0.21875,0.21875 c 0.71091,0.32816 1.29424,0.69274 1.75,1.09375 0.12757,0.0729 0.20049,0.14587 0.21875,0.21875 l 0.21875,0.10938 c 0.32809,0.23701 0.5833,0.45576 0.76563,0.65625 0.45569,0.34638 0.82027,0.67451 1.09375,0.98437 2.66142,3.70055 3.31767,7.52867 1.96875,11.48438 -1.44014,4.04688 -3.99222,6.70834 -7.65625,7.98437 -11.39325,3.50001 -20.69012,1.27605 -27.89063,-6.67187 l 0.32813,-0.4375 0.4375,-0.21875 c 0.1276,-0.16405 0.27343,-0.27342 0.4375,-0.32813 0.29166,-0.38279 0.61979,-0.638 0.98437,-0.76562 0.1276,-0.16405 0.27344,-0.27342 0.4375,-0.32813 0.1276,-0.16404 0.27344,-0.27342 0.4375,-0.32812 l 0.21875,-0.32813 0.32813,-0.21875 0.21875,-0.21875 0.32812,-0.21875 0.32813,-0.10937 0.21875,-0.32813 0.21875,-0.10937 0.21875,-0.21875 0.21875,-0.10938 0.21875,-0.10937 1.53125,-1.3125 c 4.83071,4.7396 10.22654,6.45314 16.1875,5.14062 l 0.32812,-0.21875 0.32813,-0.10937 0.10937,-0.21875 1.64063,-1.09375 c 0.25518,-0.61978 0.51039,-1.13019 0.76562,-1.53125 0.21872,-1.98696 -0.40107,-3.55467 -1.85937,-4.70313 l -0.4375,-0.10937 -0.32813,-0.21875 -0.4375,-0.10938 -0.875,-0.21875 -0.32812,0 -0.4375,-0.10937 -0.21875,-0.10938 c -0.6745,-0.10935 -1.25784,-0.25518 -1.75,-0.4375 l -0.32813,0 -0.32812,-0.10937 -0.875,-0.21875 c -0.91148,-0.10935 -1.6771,-0.29164 -2.29688,-0.54688 -7.12761,-0.92966 -11.06511,-4.6484 -11.8125,-11.15625 0.16406,-8.22131 5.01301,-12.85151 14.54688,-13.89062 z"
         style="font-size:56px;font-variant:normal;font-stretch:normal;text-align:start;line-height:125%;writing-mode:lr-tb;text-anchor:start;font-family:Transport Heavy;-inkscape-font-specification:'Transport Heavy,'"
         id="path3000" />
      <path
         d="m 325.65401,290.33429 0.76563,0 0.32812,0 0.32813,0 1.42187,0 0.875,0 1.53125,0 0.32813,0 0.54687,0 0.32813,0 0.4375,0 0.32812,0 2.1875,0 1.85938,0 0.32812,0 1.3125,0 1.42188,0 0.4375,0 1.85937,0 0.875,0 0.76563,0 1.20312,0 0.54688,0 1.42187,0 0.4375,0 1.85938,0 0.32812,0 1.3125,0 0,8.3125 -0.32812,0 -2.1875,0 -0.76563,0 -0.76562,0 -0.4375,0 -0.54688,0 -1.42187,0 -0.4375,0 -1.85938,0 -0.32812,0 -1.3125,0 -0.4375,0 -0.4375,0 -0.32813,0 -1.96875,0 -1.42187,0 -0.4375,0 -1.85938,0 -0.32812,0 -1.3125,0 0,8.42187 0.76562,0 2.1875,0 0.65625,0 0.32813,0 0.4375,0 0.32812,0 0.54688,0 0.32812,0 0.4375,0 0.32813,0 2.1875,0 0.4375,0 0.4375,0 0.32812,0 1.96875,0 1.42188,0 0.4375,0 1.85937,0 0.32813,0 1.3125,0 0,7.875 -1.53125,0 -0.32813,0 -0.54687,0 -0.32813,0 -0.4375,0 -0.32812,0 -2.1875,0 -1.42188,0 -0.76562,0 -1.53125,0 -0.32813,0 -1.96875,0 -1.42187,0 -0.4375,0 -1.85938,0 -0.32812,0 -1.3125,0 0,17.28125 -0.10938,0 0.10938,0 -0.21875,0 0.10937,0 -0.21875,0 0.10938,0 -0.21875,0 0.10937,0 -0.21875,0 0.10938,0 -0.21875,0 0.10937,0 -0.21875,0 0.10938,0 -0.21875,0 0.10937,0 -0.21875,0 0.10938,0 -0.21875,0 0.10937,0 -0.21875,0 0.10938,0 -0.21875,0 0.10937,0 -0.21875,0 0.10938,0 -0.21875,0 0.10937,0 -0.21875,0 0.10938,0 -0.21875,0 0.10937,0 -0.21875,0 0.10938,0 -0.21875,0 0.10937,0 -0.21875,0 0.10938,0 -0.21875,0 0.10937,0 -0.21875,0 0.10938,0 -0.21875,0 0.10937,0 -0.21875,0 0.10938,0 -0.21875,0 0.10937,0 -0.21875,0 0.10938,0 -0.21875,0 0.10937,0 -0.21875,0 0.10938,0 -0.21875,0 0.10937,0 -0.21875,0 0.10938,0 -0.21875,0 0.10937,0 -0.21875,0 0.10938,0 -0.21875,0 0.10937,0 -0.21875,0 0.10938,0 -0.21875,0 0.10937,0 -0.21875,0 0.10938,0 -0.21875,0 0.10937,0 -0.21875,0 0.10938,0 -0.21875,0 0.10937,0 -0.21875,0 0.10938,0 -0.21875,0 0.10937,0 -0.21875,0 0.10938,0 -0.21875,0 0.10937,0 -0.21875,0 0.10938,0 -0.21875,0 0.10937,0 -0.21875,0 0.10938,0 -0.21875,0 0.10937,0 -0.21875,0 0.10938,0 -0.21875,0 0.10937,0 -0.21875,0 0.10938,0 -0.21875,0 0.10937,0 -0.21875,0 0.10938,0 -0.21875,0 0.10937,0 -0.21875,0 0.10938,0 -0.21875,0 0.10937,0 -0.21875,0 0.10938,0 -0.21875,0 0.10937,0 -0.21875,0 0.10938,0 -0.21875,0 0.10937,0 -0.21875,0 0.10938,0 -0.21875,0 0.10937,0 -0.21875,0 0.10938,0 -0.21875,0 0.10937,0 -0.21875,0 0.10938,0 -0.21875,0 0.10937,0 -0.21875,0 0.10938,0 -0.21875,0 0.10937,0 -0.21875,0 0.10938,0 -0.21875,0 0.10937,0 -0.21875,0 0.10938,0 -0.21875,0 0.10937,0 -0.21875,0 0.10938,0 -0.21875,0 0.10937,0 -0.21875,0 0.10938,0 -0.21875,0 0.10937,0 -0.21875,0 0.10938,0 -0.21875,0 0.10937,0 -0.21875,0 0.10938,0 -0.21875,0 0.10937,0 -0.21875,0 0.10938,0 -0.10938,0 0,-0.4375 0,-1.96875 0,-0.875 0,-0.875 0,-0.32812 0,-0.4375 0,-1.96875 0,-0.32813 0,-2.1875 0,-0.875 0,-0.4375 0,-1.96875 0,-0.32812 0,-0.32813 0,-3.39062 0,-0.76563 0,-0.32812 0,-0.4375 0,-1.96875 0,-1.53125 0,-0.32813 0,-0.54687 0,-0.32813 0,-0.4375 0,-0.32812 0,-2.1875 0,-1.85938 0,-0.32812 0,-1.3125 0,-1.42188 0,-0.4375 0,-1.85937 0,-0.32813 0,-1.3125 0,-1.20312 0,-0.54688 0,-1.42187 0,-0.4375 0,-1.85938 0,-0.32812 0,-1.3125 z"
         style="fill:#37abc8"
         id="path3002" />
      <path
         d="m 360.87276,290.44366 0.4375,0 1.96875,0 0.4375,0 0.4375,0 0.4375,0 1.85938,0 0.32812,0 1.3125,0 0,41.78125 -1.42187,0 -0.4375,0 -1.96875,0 -0.4375,0 -0.4375,0 -0.4375,0 -1.85938,0 -0.32812,0 -1.3125,0 0,-0.32812 0,-0.4375 0,-0.32813 0,-0.4375 0,-1.96875 0,-0.875 0,-0.875 0,-0.32812 0,-2.1875 0,-0.4375 0,-0.54688 0,-0.4375 0,-0.54687 0,-1.42188 0,-0.4375 0,-1.85937 0,-0.32813 0,-1.3125 0,-0.4375 0,-0.54687 0,-1.42188 0,-0.4375 0,-1.85937 0,-0.32813 0,-1.3125 0,-0.76562 0,-0.875 0,-0.875 0,-0.875 0,-0.32813 0,-0.32812 0,-3.39063 0,-0.76562 0,-0.65625 0,-0.76563 0,-0.65625 0,-0.54687 0,-0.65625 0,-0.4375 0,-1.96875 0,-1.20313 0,-0.4375 0,-0.4375 0,-0.4375 0,-0.4375 0,-1.85937 0,-0.32813 0,-1.3125 z"
         style="fill:#37abc8"
         id="path3004" />
      <path
         d="m 378.26339,290.44366 1.42187,0 0.4375,0 1.96875,0 0.4375,0 0.4375,0 0.4375,0 1.85938,0 0.875,0 0.76562,0 0.21875,0.21875 0.4375,0.76563 c 0.32812,0.63807 0.65624,1.14848 0.98438,1.53125 l 0.21875,0.4375 0.32812,0.4375 c 0.40103,0.82036 0.80207,1.4766 1.20313,1.96875 l 0.10937,0.32812 0.32813,0.4375 0.21875,0.32813 0.10937,0.32812 0.32813,0.32813 0.10937,0.32812 0.10938,0.21875 0.21875,0.21875 0.10937,0.32813 0.32813,0.32812 0.32812,0.76563 0.21875,0.10937 c 0.40103,0.83858 0.83853,1.49483 1.3125,1.96875 l 0.21875,-0.54687 0.32813,-0.4375 0.32812,-0.65625 0.32813,-0.4375 0.10937,-0.21875 1.20313,-1.85938 0.32812,-0.54687 0.76563,-1.42188 0.21875,-0.32812 0.65625,-0.875 0.21875,-0.32813 0.10937,-0.4375 0.54688,-0.65625 0.10937,-0.32812 0.21875,-0.4375 0.21875,-0.32813 0.21875,-0.10937 c 0.21873,-0.56506 0.47394,-1.03902 0.76563,-1.42188 l 1.53125,0 1.42187,0 0.4375,0 1.96875,0 0.4375,0 0.4375,0 0.4375,0 1.85938,0 0.32812,0 1.3125,0 c -0.32816,0.71099 -0.69274,1.29432 -1.09375,1.75 l -0.32812,0.76563 -0.4375,0.65625 -0.4375,0.65625 -1.3125,2.07812 -0.32813,0.65625 -0.4375,0.54688 -0.32812,0.65625 -0.4375,0.54687 -0.21875,0.54688 -0.4375,0.54687 c -0.23701,0.52869 -0.49222,0.92973 -0.76563,1.20313 -0.18232,0.43754 -0.40107,0.80212 -0.65625,1.09375 -0.18232,0.43754 -0.40107,0.80212 -0.65625,1.09375 l -0.10937,0.32812 -1.42188,2.29688 -0.21875,0.21875 -0.10937,0.32812 -0.21875,0.21875 -0.21875,0.32813 -0.10938,0.32812 -1.85937,2.84375 c 0.27341,0.38284 0.49216,0.74743 0.65625,1.09375 l 0.32812,0.54688 0.32813,0.32812 0.10937,0.4375 c 0.10935,0.0912 0.18227,0.20055 0.21875,0.32813 0.43748,0.47398 0.72914,0.94794 0.875,1.42187 0.43748,0.47399 0.72914,0.94794 0.875,1.42188 l 0.21875,0.10937 0.10938,0.32813 0.10937,0.21875 c 0.43748,0.58335 0.7656,1.09377 0.98438,1.53125 0.1458,0.237 0.25518,0.45575 0.32812,0.65625 l 0.4375,0.54687 c 0.23695,0.36461 0.41924,0.69273 0.54688,0.98438 l 0.21875,0.21875 0.10937,0.32812 0.4375,0.65625 0.21875,0.21875 0.10938,0.32813 c 0.36455,0.45574 0.61976,0.89324 0.76562,1.3125 l 0.32813,0.4375 0.21875,0.4375 0.32812,0.4375 0.32813,0.4375 0.21875,0.54687 c 0.36455,0.41929 0.61976,0.82033 0.76562,1.20313 0.38278,0.45574 0.67445,0.9297 0.875,1.42187 0.38278,0.45574 0.67445,0.9297 0.875,1.42188 0.47393,0.54688 0.80205,1.09376 0.98438,1.64062 0.32809,0.34637 0.54684,0.71095 0.65625,1.09375 l -1.53125,0 -1.42188,0 -0.4375,0 -1.96875,0 -0.4375,0 -0.4375,0 -0.4375,0 -1.85937,0 -0.32813,0 -1.3125,0 -0.21875,-0.32812 -0.10937,-0.4375 -0.21875,-0.10938 -0.32813,-0.76562 c -0.43752,-0.47395 -0.72919,-0.94791 -0.875,-1.42188 -0.16408,-0.16405 -0.27346,-0.34634 -0.32812,-0.54687 -0.16409,-0.16405 -0.27346,-0.34634 -0.32813,-0.54688 l -0.32812,-0.4375 -0.21875,-0.4375 -0.32813,-0.32812 -0.76562,-1.42188 c -0.16409,-0.18227 -0.27346,-0.36457 -0.32813,-0.54687 -0.45575,-0.52863 -0.78387,-1.00259 -0.98437,-1.42188 l -0.65625,-1.20312 -0.21875,-0.21875 -0.10938,-0.32813 c -0.27345,-0.29165 -0.45575,-0.58331 -0.54687,-0.875 -0.0912,-0.0729 -0.12763,-0.14581 -0.10938,-0.21875 l -0.21875,-0.10937 c -0.38283,-0.83852 -0.82033,-1.49477 -1.3125,-1.96875 l -0.10937,0.32812 -1.09375,1.64063 -0.10938,0.21875 -0.875,1.53125 -0.32812,0.4375 -0.10938,0.21875 -0.10937,0.21875 -0.21875,0.21875 -0.4375,0.76562 -0.10938,0.21875 c -0.25522,0.34637 -0.43751,0.63804 -0.54687,0.875 l -0.21875,0.32813 -0.21875,0.4375 -0.32813,0.32812 c -0.1823,0.43752 -0.40105,0.8021 -0.65625,1.09375 l -0.21875,0.32813 -0.54687,1.09375 -0.65625,0.875 -0.10938,0.32812 -0.21875,0.21875 -0.10937,0.32813 -0.10938,0.21875 c -0.43751,0.51042 -0.72917,0.98438 -0.875,1.42187 l -1.53125,0 -1.42187,0 -0.4375,0 -1.96875,0 -0.4375,0 -0.4375,0 -0.4375,0 -1.85938,0 -0.32812,0 -1.3125,0 0.32812,-0.76562 0.21875,-0.4375 0.21875,-0.21875 0.4375,-0.76563 c 0.36459,-0.63801 0.69271,-1.14842 0.98438,-1.53125 l 0.4375,-0.65625 0.32812,-0.76562 0.4375,-0.65625 0.65625,-0.875 0.10938,-0.4375 0.21875,-0.32813 0.32812,-0.32812 0.21875,-0.4375 0.10938,-0.32813 0.21875,-0.21875 1.20312,-1.96875 0.32813,-0.4375 0.21875,-0.4375 0.65625,-1.20312 0.4375,-0.4375 0.10937,-0.4375 0.32813,-0.4375 0.32812,-0.4375 0.21875,-0.54688 0.32813,-0.54687 0.4375,-0.4375 0.10937,-0.4375 0.21875,-0.10938 c 0.21874,-0.56508 0.47395,-1.00258 0.76563,-1.3125 l 0.10937,-0.32812 0.21875,-0.21875 0.21875,-0.32813 0.4375,-0.76562 c 0.1276,-0.29164 0.30989,-0.54685 0.54688,-0.76563 0.29165,-0.69268 0.61978,-1.23955 0.98437,-1.64062 l -0.10937,-0.32813 -0.4375,-0.65625 -0.21875,-0.21875 -0.10938,-0.32812 c -0.36459,-0.4557 -0.6198,-0.8932 -0.76562,-1.3125 l -0.21875,-0.10938 -0.10938,-0.32812 -0.21875,-0.21875 -0.875,-1.53125 c -0.25521,-0.34632 -0.43751,-0.67445 -0.54687,-0.98438 l -0.21875,-0.21875 -0.10938,-0.32812 c -0.60157,-0.76559 -1.03907,-1.42184 -1.3125,-1.96875 l -0.4375,-0.65625 -0.21875,-0.54688 c -0.16407,-0.18225 -0.27344,-0.36454 -0.32812,-0.54687 -0.47397,-0.54684 -0.80209,-1.05725 -0.98438,-1.53125 l -0.32812,-0.4375 -0.21875,-0.4375 -0.21875,-0.4375 -0.32813,-0.32813 -0.21875,-0.4375 -0.32812,-0.4375 -0.10938,-0.32812 -0.21875,-0.4375 -0.32812,-0.32813 -0.10938,-0.32812 -0.32812,-0.32813 -0.10938,-0.32812 -0.21875,-0.32813 -0.21875,-0.32812 -0.4375,-0.65625 -0.10937,-0.32813 c -0.0912,-0.0729 -0.12761,-0.14578 -0.10938,-0.21875 -0.47396,-0.54682 -0.80208,-1.05724 -0.98437,-1.53125 z"
         style="fill:#37abc8"
         id="path3006" />
    </g>
  </g>
</svg>
