<?xml version="1.0" encoding="UTF-8" standalone="no"?>
<!-- Created with Inkscape (http://www.inkscape.org/) -->

<svg
   xmlns:dc="http://purl.org/dc/elements/1.1/"
   xmlns:cc="http://creativecommons.org/ns#"
   xmlns:rdf="http://www.w3.org/1999/02/22-rdf-syntax-ns#"
   xmlns:svg="http://www.w3.org/2000/svg"
   xmlns="http://www.w3.org/2000/svg"
   xmlns:sodipodi="http://sodipodi.sourceforge.net/DTD/sodipodi-0.dtd"
   xmlns:inkscape="http://www.inkscape.org/namespaces/inkscape"
   width="744.09448819"
   height="1052.3622047"
   id="svg2"
   version="1.1"
   inkscape:version="0.48.4 r9939"
   sodipodi:docname="New document 1">
  <defs
     id="defs4" />
  <sodipodi:namedview
     id="base"
     pagecolor="#ffffff"
     bordercolor="#666666"
     borderopacity="1.0"
     inkscape:pageopacity="0.0"
     inkscape:pageshadow="2"
     inkscape:zoom="2.8"
     inkscape:cx="278.40159"
     inkscape:cy="737.39696"
     inkscape:document-units="px"
     inkscape:current-layer="layer1"
     showgrid="false"
     inkscape:window-width="1280"
     inkscape:window-height="975"
     inkscape:window-x="1272"
     inkscape:window-y="173"
     inkscape:window-maximized="1" />
  <metadata
     id="metadata7">
    <rdf:RDF>
      <cc:Work
         rdf:about="">
        <dc:format>image/svg+xml</dc:format>
        <dc:type
           rdf:resource="http://purl.org/dc/dcmitype/StillImage" />
        <dc:title></dc:title>
      </cc:Work>
    </rdf:RDF>
  </metadata>
  <g
     inkscape:label="Layer 1"
     inkscape:groupmode="layer"
     id="layer1">
    <g
       style="font-size:12px;font-style:normal;font-weight:normal;line-height:125%;letter-spacing:0px;word-spacing:0px;fill:#000000;fill-opacity:1;stroke:none;font-family:Sans"
       id="text2985">
      <path
         d="m 104.60714,290.22491 0.4375,0 0.32812,0 0.4375,0 1.96875,0 0.4375,0 1.96875,0 0.65625,0 0.76563,0 2.1875,0 0.875,0 0.875,0 0.875,0 0.875,0 2.1875,0 0.32812,0 0.32813,0 3.39062,0 0.76563,0 0.65625,0 0.76562,0 0.65625,0 0.54688,0 0.65625,0 0.4375,0 1.96875,0 1.20312,0 0.4375,0 0.4375,0 0.4375,0 0.4375,0 1.85938,0 0.32812,0 1.3125,0 0,8.3125 -0.65625,0 -0.32812,0 -2.1875,0 -1.42188,0 -0.4375,0 -1.96875,0 -0.4375,0 -0.4375,0 -0.4375,0 -1.85937,0 -0.32813,0 -1.3125,0 0,33.57813 -1.42187,0 -0.4375,0 -1.96875,0 -0.4375,0 -0.4375,0 -0.4375,0 -1.85938,0 -0.32812,0 -1.3125,0 0,-0.76563 0,-0.32812 0,-0.54688 0,-0.32812 0,-0.4375 0,-0.32813 0,-2.1875 0,-0.4375 0,-1.96875 0,-0.65625 0,-0.76562 0,-2.1875 0,-0.875 0,-0.875 0,-0.875 0,-0.875 0,-2.1875 0,-0.32813 0,-0.32812 0,-3.39063 0,-0.76562 0,-0.65625 0,-0.76563 0,-0.65625 0,-0.54687 0,-0.65625 0,-0.4375 0,-1.96875 0,-1.20313 0,-0.4375 0,-0.4375 0,-0.4375 0,-0.4375 0,-1.85937 0,-0.32813 0,-1.3125 -0.65625,0 -0.32813,0 -2.1875,0 -1.42187,0 -0.4375,0 -1.96875,0 -0.4375,0 -0.4375,0 -0.4375,0 -1.85938,0 -0.32812,0 -1.3125,0 0,-2.1875 0,-0.54687 0,-0.32813 0,-0.4375 0,-0.4375 0,-0.4375 0,-0.4375 0,-1.85937 0,-0.32813 0,-1.3125 z"
         style="font-size:56px;font-variant:normal;font-stretch:normal;text-align:start;line-height:125%;writing-mode:lr-tb;text-anchor:start;font-family:Transport Heavy;-inkscape-font-specification:'Transport Heavy,'"
         id="path2992" />
      <path
         d="m 145.18526,290.22491 0.875,0 2.1875,0 0.32813,0 0.32812,0 3.39063,0 0.76562,0 0.32813,0 1.42187,0 1.85938,0 0.4375,0 0.4375,0 1.96875,0 1.53125,0 0.32812,0 0.32813,0 0.32812,0 0.76563,0 0.4375,0 0.32812,0 0.32813,0 c 0.52862,0.0912 0.96612,0.12766 1.3125,0.10938 l 1.3125,0.21875 0.21875,0.10937 0.32812,0 0.21875,0.10938 1.64063,0.54687 c 3.35413,1.76828 5.57809,4.21098 6.67187,7.32813 2.15101,7.69274 -0.36462,13.19794 -7.54687,16.51562 l 0.21875,0.10938 c 0.34632,0.71096 0.67445,1.29429 0.98437,1.75 l 0.32813,0.65625 c 0.1458,0.237 0.25518,0.45575 0.32812,0.65625 l 0.4375,0.65625 c 0.43747,0.65627 0.7656,1.2396 0.98438,1.75 0.43747,0.54689 0.72913,1.05731 0.875,1.53125 0.45569,0.58335 0.78382,1.09376 0.98437,1.53125 0.25518,0.41928 0.43747,0.78387 0.54688,1.09375 l 0.21875,0.32812 0.21875,0.4375 0.32812,0.32813 0.76563,1.42187 c 0.23694,0.38283 0.41923,0.71095 0.54687,0.98438 l 0.21875,0.32812 0.10938,0.21875 0.21875,0.21875 0.10937,0.32813 c 0.67444,1.00261 1.1484,1.87761 1.42188,2.625 l -0.76563,0 -1.53125,0 -0.32812,0 -1.96875,0 -1.42188,0 -0.4375,0 -1.85937,0 -0.32813,0 -1.3125,0 -0.10937,-0.21875 -0.21875,-0.21875 -0.10938,-0.21875 -0.76562,-1.3125 -0.10938,-0.32813 c -0.34638,-0.41926 -0.56513,-0.8203 -0.65625,-1.20312 -0.43752,-0.45572 -0.72919,-0.92968 -0.875,-1.42188 -0.43752,-0.54686 -0.72919,-1.05728 -0.875,-1.53125 l -0.32812,-0.4375 -0.32813,-0.65625 -0.21875,-0.4375 c -0.45575,-0.54686 -0.78387,-1.02081 -0.98437,-1.42187 -0.25523,-0.56509 -0.51044,-1.03905 -0.76563,-1.42188 l -0.10937,-0.32812 c -0.41929,-0.45571 -0.71096,-0.92967 -0.875,-1.42188 l -0.21875,-0.32812 -0.10938,-0.32813 -0.21875,-0.10937 -0.32812,-0.76563 c -0.0912,-0.0729 -0.12763,-0.14581 -0.10938,-0.21875 -0.54689,-0.71091 -0.94793,-1.36716 -1.20312,-1.96875 l -0.4375,0 -1.20313,0 -0.54687,0 -0.32813,0 -0.4375,0 -0.32812,0 -2.1875,0 0,16.29688 -1.42188,0 -0.4375,0 -1.96875,0 -0.4375,0 -0.4375,0 -0.4375,0 -1.85937,0 -0.32813,0 -1.3125,0 0,-0.4375 0,-1.96875 0,-0.875 0,-0.875 0,-0.32813 0,-0.4375 0,-1.96875 0,-0.32812 0,-2.1875 0,-0.875 0,-0.4375 0,-1.96875 0,-0.32813 0,-0.32812 0,-3.39063 0,-0.76562 0,-0.32813 0,-0.4375 0,-1.96875 0,-1.53125 0,-0.32812 0,-0.54688 0,-0.32812 0,-0.4375 0,-0.32813 0,-2.1875 0,-1.85937 0,-0.32813 0,-1.3125 0,-1.42187 0,-0.4375 0,-1.85938 0,-0.32812 0,-1.3125 0,-1.20313 0,-0.54687 0,-1.42188 0,-0.4375 0,-1.85937 0,-0.32813 0,-1.3125 z m 7.76563,17.71875 0.54687,0 0.76563,0 1.53125,0 0.32812,0 1.96875,0 1.42188,0 0.4375,0 1.85937,0 0.32813,0 1.3125,0 1.3125,-0.32812 c 2.16924,-1.34893 3.11716,-3.17184 2.84375,-5.46875 -0.52868,-1.64059 -1.47659,-2.84371 -2.84375,-3.60938 l -0.32813,0 -0.21875,-0.10937 -1.42187,-0.32813 -0.54688,0 -1.53125,0 -0.54687,0 -0.4375,0 -1.96875,0 -0.4375,0 -0.4375,0 -0.4375,0 -1.85938,0 -0.32812,0 -1.3125,0 z"
         style="font-size:56px;font-variant:normal;font-stretch:normal;text-align:start;line-height:125%;writing-mode:lr-tb;text-anchor:start;font-family:Transport Heavy;-inkscape-font-specification:'Transport Heavy,'"
         id="path2994" />
      <path
         style="font-size:56px;font-variant:normal;font-stretch:normal;text-align:start;line-height:125%;writing-mode:lr-tb;text-anchor:start;font-family:Transport Heavy;-inkscape-font-specification:'Transport Heavy,'"
         d="m 197.90401,290.33429 c 3.5,0 7,0 10.5,0 l 17.02962,51.97991 c -3.0575,0 -6.11499,0 -9.17248,0 l -5.66964,-17.52679 c -5.21354,0 -10.42708,0 -15.64062,0 -0.20856,1.20374 -0.69116,2.3307 -1.01725,3.50019 -0.33631,1.33161 -0.87882,2.59478 -1.17025,3.93731 -3.13542,0 -6.27083,0 -9.40625,0 l 13.78125,-41.89062 c 0.25521,0 0.51041,0 0.76562,0 z m 4.70313,9.625 c -0.56722,1.98457 -1.15368,3.97347 -1.87039,5.91017 -0.4252,1.62835 -0.87232,3.25205 -1.52024,4.80858 -0.45843,2.27849 -1.44911,4.39938 -1.96875,6.67187 3.68229,0 7.36459,0 11.04688,0 -0.88672,-3.28301 -2.02628,-6.49462 -2.99074,-9.74128 -0.0712,-0.78055 -0.53794,-1.39672 -0.59249,-2.18538 -0.48915,-1.56951 -1.09286,-3.09732 -1.48908,-4.69572 -0.23518,-0.27375 -0.51371,-2.14111 -0.61519,-0.76824 z"
         id="path2996"
         inkscape:connector-curvature="0"
         sodipodi:nodetypes="scccccccccsccccccccc" />
      <path
         d="m 230.82589,290.22491 1.53125,0 0.54687,0 0.4375,0 1.96875,0 0.4375,0 0.4375,0 0.4375,0 1.85938,0 0.32812,0 1.3125,0 0.4375,0.76563 0.4375,0.65625 0.4375,0.65625 0.4375,0.65625 0.4375,0.65625 0.32813,0.32812 0.10937,0.32813 c 0.0911,0.073 0.12759,0.14588 0.10938,0.21875 0.52863,0.56515 0.89321,1.11202 1.09375,1.64062 0.52862,0.56515 0.89321,1.11202 1.09375,1.64063 l 0.4375,0.54687 0.4375,0.65625 c 0.2005,0.32817 0.38279,0.58338 0.54687,0.76563 l 0.10938,0.32812 c 0.27341,0.29171 0.45571,0.58338 0.54687,0.875 0.72915,0.82035 1.23956,1.58598 1.53125,2.29688 l 0.4375,0.65625 c 0.0911,0.0729 0.12758,0.14587 0.10938,0.21875 0.54685,0.61982 0.94789,1.1667 1.20312,1.64062 l 0.4375,0.65625 0.32813,0.65625 0.4375,0.65625 0.4375,0.4375 0.32812,0.54688 0.21875,0.54687 c 0.47393,0.47399 0.80206,0.94795 0.98438,1.42188 l 0.32812,0.4375 0.21875,0.4375 0.32813,0.32812 c 0.34632,0.51045 0.60153,0.94795 0.76562,1.3125 l 0.32813,0.32813 0.21875,0.32812 0.10937,0.32813 0.21875,0.10937 c 0.23695,0.52867 0.49216,0.92971 0.76563,1.20313 l 0.10937,0.32812 c 0.0911,0.0729 0.12758,0.14586 0.10938,0.21875 0.67444,0.74742 1.1484,1.44013 1.42187,2.07813 l 0.10938,-0.76563 0,-0.76562 0,-0.875 0,-0.4375 0,-1.96875 0,-1.20313 0,-0.4375 0,-0.4375 0,-0.4375 0,-0.4375 0,-1.85937 0,-0.32813 0,-1.3125 0,-0.65625 0,-1.85937 0,-0.32813 0,-1.3125 0,-1.42187 0,-0.4375 0,-1.85938 0,-0.32812 0,-1.3125 0,-1.20313 0,-0.54687 0,-1.42188 0,-0.4375 0,-1.85937 0,-0.32813 0,-1.3125 1.42187,0 0.4375,0 1.96875,0 0.4375,0 0.4375,0 0.4375,0 1.85938,0 0.32812,0 1.3125,0 0,41.78125 -0.32812,0 -1.3125,0 -1.09375,0 -0.76563,0 -0.65625,0 -0.54687,0 -0.4375,0 -0.4375,0 -0.4375,0 -0.32813,0 -0.32812,0 -0.32813,0 -0.21875,0 0.21875,0 -0.21875,0 -0.875,0 -0.32812,0 -1.42188,0 -0.10937,-0.21875 c -0.25524,-0.32811 -0.43753,-0.61978 -0.54688,-0.875 -0.0912,-0.0729 -0.12763,-0.14582 -0.10937,-0.21875 -0.67451,-0.74738 -1.14847,-1.44009 -1.42188,-2.07812 -0.0912,-0.0729 -0.12763,-0.14582 -0.10937,-0.21875 l -0.4375,-0.65625 c -0.38284,-0.43749 -0.67451,-0.87499 -0.875,-1.3125 l -0.54688,-0.65625 -0.4375,-0.76563 -0.4375,-0.76562 c -0.49221,-0.54686 -0.85679,-1.05728 -1.09375,-1.53125 l -0.21875,-0.21875 c -0.29169,-0.63801 -0.61981,-1.14842 -0.98437,-1.53125 l -0.10938,-0.21875 -0.21875,-0.32813 -0.98437,-1.53125 c -0.25523,-0.3281 -0.43753,-0.61977 -0.54688,-0.875 -0.0912,-0.0729 -0.12762,-0.14581 -0.10937,-0.21875 l -0.21875,-0.10937 -0.4375,-0.76563 -0.10938,-0.21875 c -0.25523,-0.3281 -0.43752,-0.61977 -0.54687,-0.875 -0.16409,-0.18226 -0.27346,-0.36456 -0.32813,-0.54687 l -0.4375,-0.4375 -0.4375,-0.65625 -0.21875,-0.54688 -0.21875,-0.10937 -0.4375,-0.76563 -0.98437,-1.42187 -0.21875,-0.4375 -0.21875,-0.4375 -0.32813,-0.32813 -0.21875,-0.32812 -0.10937,-0.32813 c -0.3646,-0.40101 -0.65627,-0.76559 -0.875,-1.09375 l -0.21875,-0.4375 c -0.30991,-0.41924 -0.52866,-0.78382 -0.65625,-1.09375 -0.12762,-0.0729 -0.20054,-0.1458 -0.21875,-0.21875 l -0.21875,-0.21875 -0.10938,-0.21875 -0.4375,-0.76562 -0.98437,-1.42188 0,28 -1.42188,0 -0.4375,0 -1.96875,0 -0.4375,0 -0.4375,0 -0.4375,0 -1.85937,0 -0.32813,0 -1.3125,0 0,-0.32812 0,-0.4375 0,-0.32813 0,-0.4375 0,-1.96875 0,-0.875 0,-0.875 0,-0.32812 0,-2.1875 0,-0.4375 0,-0.54688 0,-0.4375 0,-0.54687 0,-1.42188 0,-0.4375 0,-1.85937 0,-0.32813 0,-1.3125 0,-0.4375 0,-0.54687 0,-1.42188 0,-0.4375 0,-1.85937 0,-0.32813 0,-1.3125 0,-0.76562 0,-0.875 0,-0.875 0,-0.875 0,-0.32813 0,-0.32812 0,-3.39063 0,-0.76562 0,-0.65625 0,-0.76563 0,-0.65625 0,-0.54687 0,-0.65625 0,-0.4375 0,-1.96875 0,-1.20313 0,-0.4375 0,-0.4375 0,-0.4375 0,-0.4375 0,-1.85937 0,-0.32813 0,-1.3125 z"
         style="font-size:56px;font-variant:normal;font-stretch:normal;text-align:start;line-height:125%;writing-mode:lr-tb;text-anchor:start;font-family:Transport Heavy;-inkscape-font-specification:'Transport Heavy,'"
         id="path2998" />
      <path
         d="m 294.83761,289.24054 c 7.52862,-0.18224 13.65361,2.11463 18.375,6.89062 l -0.21875,0.21875 -1.09375,0.875 -0.21875,0.32813 -0.32813,0.32812 -0.4375,0.21875 -0.32812,0.32813 -0.32813,0.32812 -0.21875,0.32813 -0.4375,0.21875 c -0.25524,0.34639 -0.47399,0.6016 -0.65625,0.76562 l -0.65625,0.4375 -0.10937,0.21875 -0.21875,0.10938 c -0.38285,0.47399 -0.74743,0.83858 -1.09375,1.09375 -4.59378,-3.75517 -9.33336,-4.95829 -14.21875,-3.60938 -0.27346,0.25525 -0.56512,0.43754 -0.875,0.54688 -0.40106,0.41931 -0.76564,0.74743 -1.09375,0.98437 l -0.10938,0.21875 -0.54687,1.3125 c 0.0364,1.45837 0.5104,2.62504 1.42187,3.5 l 1.85938,0.65625 1.75,0.32813 c 0.54685,0.18232 1.02081,0.2917 1.42187,0.32812 l 0.4375,0.10938 0.4375,0.10937 0.4375,0.10938 0.4375,0.10937 0.54688,0.21875 0.32812,0 0.4375,0.10938 0.54688,0.21875 0.4375,0.10937 0.32812,0 c 0.41925,0.1641 0.78383,0.27347 1.09375,0.32813 l 0.875,0.21875 c 0.34633,0.16409 0.63799,0.27347 0.875,0.32812 l 0.32813,0.10938 1.42187,0.54687 0.21875,0.21875 c 0.71091,0.32816 1.29424,0.69274 1.75,1.09375 0.12757,0.0729 0.20049,0.14587 0.21875,0.21875 l 0.21875,0.10938 c 0.32809,0.23701 0.5833,0.45576 0.76563,0.65625 0.45569,0.34638 0.82027,0.67451 1.09375,0.98437 2.66142,3.70055 3.31767,7.52867 1.96875,11.48438 -1.44014,4.04688 -3.99222,6.70834 -7.65625,7.98437 -11.39325,3.50001 -20.69012,1.27605 -27.89063,-6.67187 l 0.32813,-0.4375 0.4375,-0.21875 c 0.1276,-0.16405 0.27343,-0.27342 0.4375,-0.32813 0.29166,-0.38279 0.61979,-0.638 0.98437,-0.76562 0.1276,-0.16405 0.27344,-0.27342 0.4375,-0.32813 0.1276,-0.16404 0.27344,-0.27342 0.4375,-0.32812 l 0.21875,-0.32813 0.32813,-0.21875 0.21875,-0.21875 0.32812,-0.21875 0.32813,-0.10937 0.21875,-0.32813 0.21875,-0.10937 0.21875,-0.21875 0.21875,-0.10938 0.21875,-0.10937 1.53125,-1.3125 c 4.83071,4.7396 10.22654,6.45314 16.1875,5.14062 l 0.32812,-0.21875 0.32813,-0.10937 0.10937,-0.21875 1.64063,-1.09375 c 0.25518,-0.61978 0.51039,-1.13019 0.76562,-1.53125 0.21872,-1.98696 -0.40107,-3.55467 -1.85937,-4.70313 l -0.4375,-0.10937 -0.32813,-0.21875 -0.4375,-0.10938 -0.875,-0.21875 -0.32812,0 -0.4375,-0.10937 -0.21875,-0.10938 c -0.6745,-0.10935 -1.25784,-0.25518 -1.75,-0.4375 l -0.32813,0 -0.32812,-0.10937 -0.875,-0.21875 c -0.91148,-0.10935 -1.6771,-0.29164 -2.29688,-0.54688 -7.12761,-0.92966 -11.06511,-4.6484 -11.8125,-11.15625 0.16406,-8.22131 5.01301,-12.85151 14.54688,-13.89062 z"
         style="font-size:56px;font-variant:normal;font-stretch:normal;text-align:start;line-height:125%;writing-mode:lr-tb;text-anchor:start;font-family:Transport Heavy;-inkscape-font-specification:'Transport Heavy,'"
         id="path3000" />
      <path
         d="m 325.65401,290.33429 0.76563,0 0.32812,0 0.32813,0 1.42187,0 0.875,0 1.53125,0 0.32813,0 0.54687,0 0.32813,0 0.4375,0 0.32812,0 2.1875,0 1.85938,0 0.32812,0 1.3125,0 1.42188,0 0.4375,0 1.85937,0 0.875,0 0.76563,0 1.20312,0 0.54688,0 1.42187,0 0.4375,0 1.85938,0 0.32812,0 1.3125,0 0,8.3125 -0.32812,0 -2.1875,0 -0.76563,0 -0.76562,0 -0.4375,0 -0.54688,0 -1.42187,0 -0.4375,0 -1.85938,0 -0.32812,0 -1.3125,0 -0.4375,0 -0.4375,0 -0.32813,0 -1.96875,0 -1.42187,0 -0.4375,0 -1.85938,0 -0.32812,0 -1.3125,0 0,8.42187 0.76562,0 2.1875,0 0.65625,0 0.32813,0 0.4375,0 0.32812,0 0.54688,0 0.32812,0 0.4375,0 0.32813,0 2.1875,0 0.4375,0 0.4375,0 0.32812,0 1.96875,0 1.42188,0 0.4375,0 1.85937,0 0.32813,0 1.3125,0 0,7.875 -1.53125,0 -0.32813,0 -0.54687,0 -0.32813,0 -0.4375,0 -0.32812,0 -2.1875,0 -1.42188,0 -0.76562,0 -1.53125,0 -0.32813,0 -1.96875,0 -1.42187,0 -0.4375,0 -1.85938,0 -0.32812,0 -1.3125,0 0,17.28125 -0.10938,0 0.10938,0 -0.21875,0 0.10937,0 -0.21875,0 0.10938,0 -0.21875,0 0.10937,0 -0.21875,0 0.10938,0 -0.21875,0 0.10937,0 -0.21875,0 0.10938,0 -0.21875,0 0.10937,0 -0.21875,0 0.10938,0 -0.21875,0 0.10937,0 -0.21875,0 0.10938,0 -0.21875,0 0.10937,0 -0.21875,0 0.10938,0 -0.21875,0 0.10937,0 -0.21875,0 0.10938,0 -0.21875,0 0.10937,0 -0.21875,0 0.10938,0 -0.21875,0 0.10937,0 -0.21875,0 0.10938,0 -0.21875,0 0.10937,0 -0.21875,0 0.10938,0 -0.21875,0 0.10937,0 -0.21875,0 0.10938,0 -0.21875,0 0.10937,0 -0.21875,0 0.10938,0 -0.21875,0 0.10937,0 -0.21875,0 0.10938,0 -0.21875,0 0.10937,0 -0.21875,0 0.10938,0 -0.21875,0 0.10937,0 -0.21875,0 0.10938,0 -0.21875,0 0.10937,0 -0.21875,0 0.10938,0 -0.21875,0 0.10937,0 -0.21875,0 0.10938,0 -0.21875,0 0.10937,0 -0.21875,0 0.10938,0 -0.21875,0 0.10937,0 -0.21875,0 0.10938,0 -0.21875,0 0.10937,0 -0.21875,0 0.10938,0 -0.21875,0 0.10937,0 -0.21875,0 0.10938,0 -0.21875,0 0.10937,0 -0.21875,0 0.10938,0 -0.21875,0 0.10937,0 -0.21875,0 0.10938,0 -0.21875,0 0.10937,0 -0.21875,0 0.10938,0 -0.21875,0 0.10937,0 -0.21875,0 0.10938,0 -0.21875,0 0.10937,0 -0.21875,0 0.10938,0 -0.21875,0 0.10937,0 -0.21875,0 0.10938,0 -0.21875,0 0.10937,0 -0.21875,0 0.10938,0 -0.21875,0 0.10937,0 -0.21875,0 0.10938,0 -0.21875,0 0.10937,0 -0.21875,0 0.10938,0 -0.21875,0 0.10937,0 -0.21875,0 0.10938,0 -0.21875,0 0.10937,0 -0.21875,0 0.10938,0 -0.21875,0 0.10937,0 -0.21875,0 0.10938,0 -0.21875,0 0.10937,0 -0.21875,0 0.10938,0 -0.21875,0 0.10937,0 -0.21875,0 0.10938,0 -0.21875,0 0.10937,0 -0.21875,0 0.10938,0 -0.21875,0 0.10937,0 -0.21875,0 0.10938,0 -0.21875,0 0.10937,0 -0.21875,0 0.10938,0 -0.21875,0 0.10937,0 -0.21875,0 0.10938,0 -0.10938,0 0,-0.4375 0,-1.96875 0,-0.875 0,-0.875 0,-0.32812 0,-0.4375 0,-1.96875 0,-0.32813 0,-2.1875 0,-0.875 0,-0.4375 0,-1.96875 0,-0.32812 0,-0.32813 0,-3.39062 0,-0.76563 0,-0.32812 0,-0.4375 0,-1.96875 0,-1.53125 0,-0.32813 0,-0.54687 0,-0.32813 0,-0.4375 0,-0.32812 0,-2.1875 0,-1.85938 0,-0.32812 0,-1.3125 0,-1.42188 0,-0.4375 0,-1.85937 0,-0.32813 0,-1.3125 0,-1.20312 0,-0.54688 0,-1.42187 0,-0.4375 0,-1.85938 0,-0.32812 0,-1.3125 z"
         style="fill:#37abc8"
         id="path3002" />
      <path
         d="m 360.87276,290.44366 0.4375,0 1.96875,0 0.4375,0 0.4375,0 0.4375,0 1.85938,0 0.32812,0 1.3125,0 0,41.78125 -1.42187,0 -0.4375,0 -1.96875,0 -0.4375,0 -0.4375,0 -0.4375,0 -1.85938,0 -0.32812,0 -1.3125,0 0,-0.32812 0,-0.4375 0,-0.32813 0,-0.4375 0,-1.96875 0,-0.875 0,-0.875 0,-0.32812 0,-2.1875 0,-0.4375 0,-0.54688 0,-0.4375 0,-0.54687 0,-1.42188 0,-0.4375 0,-1.85937 0,-0.32813 0,-1.3125 0,-0.4375 0,-0.54687 0,-1.42188 0,-0.4375 0,-1.85937 0,-0.32813 0,-1.3125 0,-0.76562 0,-0.875 0,-0.875 0,-0.875 0,-0.32813 0,-0.32812 0,-3.39063 0,-0.76562 0,-0.65625 0,-0.76563 0,-0.65625 0,-0.54687 0,-0.65625 0,-0.4375 0,-1.96875 0,-1.20313 0,-0.4375 0,-0.4375 0,-0.4375 0,-0.4375 0,-1.85937 0,-0.32813 0,-1.3125 z"
         style="fill:#37abc8"
         id="path3004" />
      <path
         d="m 378.26339,290.44366 1.42187,0 0.4375,0 1.96875,0 0.4375,0 0.4375,0 0.4375,0 1.85938,0 0.875,0 0.76562,0 0.21875,0.21875 0.4375,0.76563 c 0.32812,0.63807 0.65624,1.14848 0.98438,1.53125 l 0.21875,0.4375 0.32812,0.4375 c 0.40103,0.82036 0.80207,1.4766 1.20313,1.96875 l 0.10937,0.32812 0.32813,0.4375 0.21875,0.32813 0.10937,0.32812 0.32813,0.32813 0.10937,0.32812 0.10938,0.21875 0.21875,0.21875 0.10937,0.32813 0.32813,0.32812 0.32812,0.76563 0.21875,0.10937 c 0.40103,0.83858 0.83853,1.49483 1.3125,1.96875 l 0.21875,-0.54687 0.32813,-0.4375 0.32812,-0.65625 0.32813,-0.4375 0.10937,-0.21875 1.20313,-1.85938 0.32812,-0.54687 0.76563,-1.42188 0.21875,-0.32812 0.65625,-0.875 0.21875,-0.32813 0.10937,-0.4375 0.54688,-0.65625 0.10937,-0.32812 0.21875,-0.4375 0.21875,-0.32813 0.21875,-0.10937 c 0.21873,-0.56506 0.47394,-1.03902 0.76563,-1.42188 l 1.53125,0 1.42187,0 0.4375,0 1.96875,0 0.4375,0 0.4375,0 0.4375,0 1.85938,0 0.32812,0 1.3125,0 c -0.32816,0.71099 -0.69274,1.29432 -1.09375,1.75 l -0.32812,0.76563 -0.4375,0.65625 -0.4375,0.65625 -1.3125,2.07812 -0.32813,0.65625 -0.4375,0.54688 -0.32812,0.65625 -0.4375,0.54687 -0.21875,0.54688 -0.4375,0.54687 c -0.23701,0.52869 -0.49222,0.92973 -0.76563,1.20313 -0.18232,0.43754 -0.40107,0.80212 -0.65625,1.09375 -0.18232,0.43754 -0.40107,0.80212 -0.65625,1.09375 l -0.10937,0.32812 -1.42188,2.29688 -0.21875,0.21875 -0.10937,0.32812 -0.21875,0.21875 -0.21875,0.32813 -0.10938,0.32812 -1.85937,2.84375 c 0.27341,0.38284 0.49216,0.74743 0.65625,1.09375 l 0.32812,0.54688 0.32813,0.32812 0.10937,0.4375 c 0.10935,0.0912 0.18227,0.20055 0.21875,0.32813 0.43748,0.47398 0.72914,0.94794 0.875,1.42187 0.43748,0.47399 0.72914,0.94794 0.875,1.42188 l 0.21875,0.10937 0.10938,0.32813 0.10937,0.21875 c 0.43748,0.58335 0.7656,1.09377 0.98438,1.53125 0.1458,0.237 0.25518,0.45575 0.32812,0.65625 l 0.4375,0.54687 c 0.23695,0.36461 0.41924,0.69273 0.54688,0.98438 l 0.21875,0.21875 0.10937,0.32812 0.4375,0.65625 0.21875,0.21875 0.10938,0.32813 c 0.36455,0.45574 0.61976,0.89324 0.76562,1.3125 l 0.32813,0.4375 0.21875,0.4375 0.32812,0.4375 0.32813,0.4375 0.21875,0.54687 c 0.36455,0.41929 0.61976,0.82033 0.76562,1.20313 0.38278,0.45574 0.67445,0.9297 0.875,1.42187 0.38278,0.45574 0.67445,0.9297 0.875,1.42188 0.47393,0.54688 0.80205,1.09376 0.98438,1.64062 0.32809,0.34637 0.54684,0.71095 0.65625,1.09375 l -1.53125,0 -1.42188,0 -0.4375,0 -1.96875,0 -0.4375,0 -0.4375,0 -0.4375,0 -1.85937,0 -0.32813,0 -1.3125,0 -0.21875,-0.32812 -0.10937,-0.4375 -0.21875,-0.10938 -0.32813,-0.76562 c -0.43752,-0.47395 -0.72919,-0.94791 -0.875,-1.42188 -0.16408,-0.16405 -0.27346,-0.34634 -0.32812,-0.54687 -0.16409,-0.16405 -0.27346,-0.34634 -0.32813,-0.54688 l -0.32812,-0.4375 -0.21875,-0.4375 -0.32813,-0.32812 -0.76562,-1.42188 c -0.16409,-0.18227 -0.27346,-0.36457 -0.32813,-0.54687 -0.45575,-0.52863 -0.78387,-1.00259 -0.98437,-1.42188 l -0.65625,-1.20312 -0.21875,-0.21875 -0.10938,-0.32813 c -0.27345,-0.29165 -0.45575,-0.58331 -0.54687,-0.875 -0.0912,-0.0729 -0.12763,-0.14581 -0.10938,-0.21875 l -0.21875,-0.10937 c -0.38283,-0.83852 -0.82033,-1.49477 -1.3125,-1.96875 l -0.10937,0.32812 -1.09375,1.64063 -0.10938,0.21875 -0.875,1.53125 -0.32812,0.4375 -0.10938,0.21875 -0.10937,0.21875 -0.21875,0.21875 -0.4375,0.76562 -0.10938,0.21875 c -0.25522,0.34637 -0.43751,0.63804 -0.54687,0.875 l -0.21875,0.32813 -0.21875,0.4375 -0.32813,0.32812 c -0.1823,0.43752 -0.40105,0.8021 -0.65625,1.09375 l -0.21875,0.32813 -0.54687,1.09375 -0.65625,0.875 -0.10938,0.32812 -0.21875,0.21875 -0.10937,0.32813 -0.10938,0.21875 c -0.43751,0.51042 -0.72917,0.98438 -0.875,1.42187 l -1.53125,0 -1.42187,0 -0.4375,0 -1.96875,0 -0.4375,0 -0.4375,0 -0.4375,0 -1.85938,0 -0.32812,0 -1.3125,0 0.32812,-0.76562 0.21875,-0.4375 0.21875,-0.21875 0.4375,-0.76563 c 0.36459,-0.63801 0.69271,-1.14842 0.98438,-1.53125 l 0.4375,-0.65625 0.32812,-0.76562 0.4375,-0.65625 0.65625,-0.875 0.10938,-0.4375 0.21875,-0.32813 0.32812,-0.32812 0.21875,-0.4375 0.10938,-0.32813 0.21875,-0.21875 1.20312,-1.96875 0.32813,-0.4375 0.21875,-0.4375 0.65625,-1.20312 0.4375,-0.4375 0.10937,-0.4375 0.32813,-0.4375 0.32812,-0.4375 0.21875,-0.54688 0.32813,-0.54687 0.4375,-0.4375 0.10937,-0.4375 0.21875,-0.10938 c 0.21874,-0.56508 0.47395,-1.00258 0.76563,-1.3125 l 0.10937,-0.32812 0.21875,-0.21875 0.21875,-0.32813 0.4375,-0.76562 c 0.1276,-0.29164 0.30989,-0.54685 0.54688,-0.76563 0.29165,-0.69268 0.61978,-1.23955 0.98437,-1.64062 l -0.10937,-0.32813 -0.4375,-0.65625 -0.21875,-0.21875 -0.10938,-0.32812 c -0.36459,-0.4557 -0.6198,-0.8932 -0.76562,-1.3125 l -0.21875,-0.10938 -0.10938,-0.32812 -0.21875,-0.21875 -0.875,-1.53125 c -0.25521,-0.34632 -0.43751,-0.67445 -0.54687,-0.98438 l -0.21875,-0.21875 -0.10938,-0.32812 c -0.60157,-0.76559 -1.03907,-1.42184 -1.3125,-1.96875 l -0.4375,-0.65625 -0.21875,-0.54688 c -0.16407,-0.18225 -0.27344,-0.36454 -0.32812,-0.54687 -0.47397,-0.54684 -0.80209,-1.05725 -0.98438,-1.53125 l -0.32812,-0.4375 -0.21875,-0.4375 -0.21875,-0.4375 -0.32813,-0.32813 -0.21875,-0.4375 -0.32812,-0.4375 -0.10938,-0.32812 -0.21875,-0.4375 -0.32812,-0.32813 -0.10938,-0.32812 -0.32812,-0.32813 -0.10938,-0.32812 -0.21875,-0.32813 -0.21875,-0.32812 -0.4375,-0.65625 -0.10937,-0.32813 c -0.0912,-0.0729 -0.12761,-0.14578 -0.10938,-0.21875 -0.47396,-0.54682 -0.80208,-1.05724 -0.98437,-1.53125 z"
         style="fill:#37abc8"
         id="path3006" />
    </g>
  </g>
</svg>
